<?xml version="1.0" encoding="UTF-8"?>
<svg id="ClearSkyDay" data-name="ClearSkyDay" xmlns="http://www.w3.org/2000/svg" viewBox="0 0 20 20">
  <defs>
    <style>
      .cls-1 {
        fill: #e3b464;
      }

      .cls-1, .cls-2, .cls-3 {
        stroke-width: 0px;
      }

      .cls-4 {
        fill: none;
        stroke: #231f20;
        stroke-miterlimit: 10;
        stroke-width: .5px;
      }

      .cls-2 {
        fill: #db8a4e;
      }

      .cls-3 {
        fill: none;
      }
    </style>
  </defs>
  <g id="ClearSkyDay" data-name="ClearSkyDay">
    <g>
      <rect class="cls-3" width="20" height="20"/>
      <g>
        <g>
          <path class="cls-2" d="M17.65,11.51c.24.2.15.58-.15.65l-3.42.85-.09-.06c.38-.51.65-1.1.81-1.75.16-.68.18-1.36.07-2.01h.13s2.65,2.32,2.65,2.32Z"/>
          <path class="cls-2" d="M16.46,5.61c.31-.02.51.31.35.58l-1.81,3.01h-.13c-.33-1.92-1.76-3.55-3.76-4.03-2.69-.64-5.39,1.01-6.03,3.69-.16.65-.18,1.31-.08,1.93h-.11s-2.66-2.3-2.66-2.3c-.23-.2-.14-.58.16-.65l3.42-.85-.25-3.51c-.02-.31.31-.51.57-.35l3.02,1.82,2.3-2.66c.2-.23.58-.14.66.16l.84,3.41,3.51-.25Z"/>
          <path class="cls-1" d="M14.87,9.19c.11.65.09,1.33-.07,2.01-.16.65-.43,1.24-.81,1.75-.77,1.08-1.95,1.81-3.26,2.02-.63.1-1.3.08-1.96-.08s-1.26-.44-1.78-.82c-1.07-.78-1.79-1.96-1.99-3.28-.1-.62-.08-1.28.08-1.93.64-2.68,3.34-4.33,6.03-3.69,2,.48,3.43,2.11,3.76,4.02Z"/>
          <path class="cls-2" d="M14.33,16.52c.02.31-.31.51-.57.35l-3.02-1.82v-.08c1.3-.21,2.48-.94,3.25-2.02l.09.06.25,3.51Z"/>
          <path class="cls-2" d="M10.73,14.97v.08s-2.3,2.66-2.3,2.66c-.2.23-.57.14-.65-.16l-.84-3.41.05-.07c.52.38,1.12.66,1.78.82s1.33.18,1.96.08Z"/>
          <path class="cls-2" d="M6.99,14.07l-.05.07-3.52.25c-.3.02-.5-.31-.35-.58l1.82-3.01h.11c.2,1.31.92,2.49,1.99,3.27Z"/>
        </g>
        <g>
          <path class="cls-4" d="M4.89,10.8l-2.66-2.31c-.23-.2-.14-.58.16-.65l3.42-.85-.25-3.51c-.02-.31.31-.51.57-.35l3.02,1.82,2.3-2.66c.2-.23.58-.14.66.16l.84,3.41,3.51-.25c.31-.02.51.31.35.58l-1.81,3.01,2.65,2.31c.24.2.15.58-.15.65l-3.42.85.25,3.51c.02.31-.31.51-.57.35l-3.02-1.82-2.31,2.66c-.2.23-.57.14-.65-.16l-.84-3.41-3.52.25c-.3.02-.5-.31-.35-.58l1.82-3.01Z"/>
          <path class="cls-4" d="M14.87,9.19c.11.65.09,1.33-.07,2.01-.16.65-.43,1.24-.81,1.75-.77,1.08-1.95,1.81-3.26,2.02-.63.1-1.3.08-1.96-.08s-1.26-.44-1.78-.82c-1.07-.78-1.79-1.96-1.99-3.28-.1-.62-.08-1.28.08-1.93.64-2.68,3.34-4.33,6.03-3.69,2,.48,3.43,2.11,3.76,4.02Z"/>
        </g>
      </g>
    </g>
  </g>
</svg>