<?xml version="1.0" encoding="UTF-8"?>
<svg id="Layer_2" data-name="Layer 2" xmlns="http://www.w3.org/2000/svg" viewBox="0 0 20 20">
  <defs>
    <style>
      .cls-1 {
        fill: #cdcdc7;
        stroke: #231f20;
        stroke-miterlimit: 10;
        stroke-width: .5px;
      }

      .cls-2 {
        fill: none;
        stroke-width: 0px;
      }
    </style>
  </defs>
  <g id="Layer_2-2" data-name="Layer 2">
    <g>
      <rect class="cls-2" width="20" height="20"/>
      <g>
        <path class="cls-1" d="M12.59,14.64c0,1.19-.97,2.16-2.17,2.16-.69,0-1.3-.32-1.7-.82-.38.5-1,.82-1.69.82s-1.31-.32-1.7-.82c-.39.5-1.01.82-1.71.82-1.19,0-2.16-.97-2.16-2.16s.9-2.1,2.04-2.16c-.09-.23-.13-.48-.13-.74,0-.23.04-.45.11-.66.33.22.73.35,1.15.35.69,0,1.31-.33,1.71-.83.39.5,1.01.83,1.7.83.05,0,.09,0,.14-.01-.1.25-.15.52-.15.8,0,1.19.97,2.17,2.17,2.17.69,0,1.31-.33,1.71-.83.16.21.36.39.59.52.06.18.09.36.09.56Z"/>
        <path class="cls-1" d="M19.17,12.22c0,1.19-.98,2.17-2.17,2.17-.69,0-1.31-.33-1.7-.83-.39.5-1.01.83-1.7.83-.4,0-.78-.11-1.1-.31-.23-.13-.43-.31-.59-.52-.4.5-1.02.83-1.71.83-1.2,0-2.17-.98-2.17-2.17,0-.28.05-.55.15-.8.63-.04,1.19-.36,1.55-.82.3.37.71.65,1.18.76.17.05.34.07.52.07,1.2,0,2.17-.98,2.17-2.17,0-1.03-.72-1.89-1.69-2.1.07-.01-.28-.06.16-.01.09,0,1.25.29,1.66.73.39-.44.97-.73,1.61-.73,1.2,0,2.17.98,2.17,2.17,0,.27-.05.53-.14.77,1.02.17,1.8,1.06,1.8,2.13Z"/>
        <path class="cls-1" d="M13.6,9.26c0,1.19-.97,2.17-2.17,2.17-.18,0-.35-.02-.52-.07-.47-.11-.88-.39-1.18-.76-.36.46-.92.78-1.55.82-.05.01-.09.01-.14.01-.69,0-1.31-.33-1.7-.83-.4.5-1.02.83-1.71.83-.42,0-.82-.13-1.15-.35-.61-.37-1.02-1.05-1.02-1.82,0-1.16.9-2.1,2.04-2.16-.09-.23-.13-.48-.13-.74,0-1.19.97-2.17,2.17-2.17.64,0,1.22.28,1.62.73.4-.45.97-.73,1.61-.73,1.21,0,2.17.98,2.17,2.17,0,.27-.05.53-.14.77.04.01.08.01.11.03.97.21,1.69,1.07,1.69,2.1Z"/>
      </g>
    </g>
  </g>
</svg>