<?xml version="1.0" encoding="UTF-8"?>
<svg id="Layer_2" data-name="Layer 2" xmlns="http://www.w3.org/2000/svg" viewBox="0 0 20 20">
  <defs>
    <style>
      .cls-1 {
        fill: #cdcdc7;
        stroke-miterlimit: 10;
      }

      .cls-1, .cls-2 {
        stroke: #231f20;
        stroke-width: .5px;
      }

      .cls-2 {
        fill: none;
        stroke-linecap: round;
        stroke-linejoin: round;
      }

      .cls-3 {
        fill: none;
        stroke-width: 0px;
      }
    </style>
  </defs>
  <g id="Layer_2-2" data-name="Layer 2">
    <g>
      <rect class="cls-3" width="20" height="20"/>
      <g>
        <path class="cls-1" d="M17.27,8.58c0,1.57-1.28,2.85-2.85,2.85-.91,0-1.72-.43-2.24-1.08-.51.65-1.33,1.08-2.23,1.08s-1.73-.43-2.24-1.09c-.52.66-1.34,1.09-2.25,1.09-1.57,0-2.85-1.28-2.85-2.85s1.19-2.76,2.68-2.85c-.11-.3-.17-.63-.17-.97,0-1.57,1.27-2.85,2.85-2.85.84,0,1.6.37,2.13.96.52-.59,1.28-.96,2.12-.96,1.58,0,2.85,1.28,2.85,2.85,0,.35-.07.69-.18,1.01,1.34.23,2.36,1.4,2.36,2.81Z"/>
        <line class="cls-2" x1="5.75" y1="12.88" x2="6.21" y2="12.37"/>
        <line class="cls-2" x1="8.56" y1="12.88" x2="9.02" y2="12.37"/>
        <line class="cls-2" x1="11.37" y1="12.88" x2="11.83" y2="12.37"/>
        <line class="cls-2" x1="14.18" y1="12.88" x2="14.64" y2="12.37"/>
        <line class="cls-2" x1="4.35" y1="14.38" x2="4.81" y2="13.87"/>
        <line class="cls-2" x1="7.16" y1="14.38" x2="7.62" y2="13.87"/>
        <line class="cls-2" x1="9.97" y1="14.38" x2="10.43" y2="13.87"/>
        <line class="cls-2" x1="12.78" y1="14.38" x2="13.24" y2="13.87"/>
      </g>
    </g>
  </g>
</svg>