<?xml version="1.0" encoding="UTF-8"?>
<svg id="Layer_2" data-name="Layer 2" xmlns="http://www.w3.org/2000/svg" viewBox="0 0 20 20">
  <defs>
    <style>
      .cls-1 {
        fill: #9fc1cc;
      }

      .cls-1, .cls-2, .cls-3, .cls-4 {
        stroke-width: 0px;
      }

      .cls-2 {
        fill: #000;
      }

      .cls-5 {
        fill: none;
        stroke: #231f20;
        stroke-miterlimit: 10;
        stroke-width: .5px;
      }

      .cls-3 {
        fill: none;
      }

      .cls-4 {
        fill: #f4d84e;
      }
    </style>
  </defs>
  <g id="Layer_2-2" data-name="Layer 2">
    <g>
      <rect class="cls-3" width="20" height="20"/>
      <g>
        <g>
          <g>
            <path class="cls-4" d="M7.33,13.78c.02.14.04.27-.3.27l-.7.02c-.17,0-.32-.11-.32-.24v-.86c0-.14.14-.25.31-.25h.56c.16,0,.3.1.32.22l.13.84Z"/>
            <path class="cls-1" d="M3.09,12.01l.98-.04c.49-.01.46-.3.43-.63l-.19-1.98c-.03-.28-.22-.5-.44-.5h-.79c-.25,0-.45.26-.45.57v2.01c0,.32.21.58.46.57ZM7.03,14.05c.34,0,.32-.13.3-.27l-.13-.84c-.02-.12-.16-.22-.32-.22h-.56c-.17,0-.31.11-.31.25v.86c0,.13.15.24.32.24l.7-.02ZM7.67,16.24h-2.86c.04-.12.06-.24.06-.37,0-.72-.58-1.3-1.3-1.3s-1.3.58-1.3,1.3c0,.13.02.25.06.37h-.55c-.15,0-.1-5.72-.14-7.78-.01-.39.33-.69.71-.65l1.37.14c.3.04.54.27.57.57l.42,3.43c.05.35.34.62.7.62h1.31c.28,0,.52.2.57.48l.38,1.81v1.38Z"/>
            <path class="cls-2" d="M4.81,16.24c-.15.54-.65.93-1.24.93s-1.09-.39-1.24-.93c-.04-.12-.06-.24-.06-.37,0-.72.58-1.3,1.3-1.3s1.3.58,1.3,1.3c0,.13-.02.25-.06.37Z"/>
          </g>
          <g>
            <path class="cls-5" d="M2.33,16.24h-.55c-.15,0-.1-5.72-.14-7.78-.01-.39.33-.69.71-.65l1.37.14c.3.04.54.27.57.57l.42,3.43c.05.35.34.62.7.62h1.31c.28,0,.52.2.57.48l.38,1.81v1.38h-2.86"/>
            <path class="cls-5" d="M3.87,8.86h-.79c-.25,0-.45.26-.45.57v2.01c0,.32.21.58.46.57l.98-.04c.49-.01.46-.3.43-.63l-.19-1.98c-.03-.28-.22-.5-.44-.5Z"/>
            <path class="cls-5" d="M6.88,12.72h-.56c-.17,0-.31.11-.31.25v.86c0,.13.15.24.32.24l.7-.02c.34,0,.32-.13.3-.27l-.13-.84c-.02-.12-.16-.22-.32-.22Z"/>
            <path class="cls-5" d="M2.33,16.24c-.04-.12-.06-.24-.06-.37,0-.72.58-1.3,1.3-1.3s1.3.58,1.3,1.3c0,.13-.02.25-.06.37-.15.54-.65.93-1.24.93s-1.09-.39-1.24-.93Z"/>
          </g>
        </g>
        <path class="cls-5" d="M9.08,10.04c.77,0,.77.5,1.54.5s.77-.5,1.55-.5.77.5,1.54.5.77-.5,1.55-.5.77.5,1.55.5.77-.5,1.55-.5"/>
        <path class="cls-5" d="M9.08,8.18c.77,0,.77.5,1.54.5s.77-.5,1.55-.5.77.5,1.54.5.77-.5,1.55-.5.77.5,1.55.5.77-.5,1.55-.5"/>
        <path class="cls-5" d="M9.08,11.9c.77,0,.77.5,1.54.5s.77-.5,1.55-.5.77.5,1.54.5.77-.5,1.55-.5.77.5,1.55.5.77-.5,1.55-.5"/>
        <path class="cls-5" d="M9.08,13.76c.77,0,.77.5,1.54.5s.77-.5,1.55-.5.77.5,1.54.5.77-.5,1.55-.5.77.5,1.55.5.77-.5,1.55-.5"/>
        <path class="cls-5" d="M9.08,15.62c.77,0,.77.5,1.54.5s.77-.5,1.55-.5.77.5,1.54.5.77-.5,1.55-.5.77.5,1.55.5.77-.5,1.55-.5"/>
      </g>
    </g>
  </g>
</svg>