<?xml version="1.0" encoding="UTF-8"?>
<svg id="Layer_2" data-name="Layer 2" xmlns="http://www.w3.org/2000/svg" viewBox="0 0 20 20">
  <defs>
    <style>
      .cls-1 {
        fill: #cdcdc7;
      }

      .cls-1, .cls-2 {
        stroke-width: .5px;
      }

      .cls-1, .cls-2, .cls-3 {
        stroke: #231f20;
        stroke-linecap: round;
        stroke-miterlimit: 10;
      }

      .cls-2, .cls-3 {
        fill: none;
      }

      .cls-3 {
        stroke-width: .25px;
      }

      .cls-4 {
        fill: none;
        stroke-width: 0px;
      }
    </style>
  </defs>
  <g id="Layer_2-2" data-name="Layer 2">
    <g>
      <rect class="cls-4" width="20" height="20"/>
      <g>
        <path class="cls-1" d="M17.33,8.14c0,1.57-1.28,2.85-2.85,2.85-.91,0-1.72-.43-2.24-1.08-.51.65-1.33,1.08-2.23,1.08s-1.73-.43-2.24-1.09c-.52.66-1.34,1.09-2.25,1.09-1.57,0-2.85-1.28-2.85-2.85s1.19-2.76,2.68-2.85c-.11-.3-.17-.63-.17-.97,0-1.57,1.27-2.85,2.85-2.85.84,0,1.6.37,2.13.96.52-.59,1.28-.96,2.12-.96,1.58,0,2.85,1.28,2.85,2.85,0,.35-.07.69-.18,1.01,1.34.23,2.36,1.4,2.36,2.81Z"/>
        <g>
          <line class="cls-2" x1="5.32" y1="10.07" x2="5.32" y2="12.65"/>
          <line class="cls-2" x1="14.68" y1="10.07" x2="14.68" y2="12.65"/>
          <line class="cls-2" x1="7.66" y1="10.07" x2="7.66" y2="14.74"/>
          <line class="cls-2" x1="12.34" y1="10.07" x2="12.34" y2="14.74"/>
          <line class="cls-2" x1="10" y1="10.07" x2="10" y2="14.16"/>
        </g>
        <g>
          <g>
            <line class="cls-3" x1="5.4" y1="15.35" x2="6.94" y2="16.9"/>
            <line class="cls-3" x1="6.17" y1="15.03" x2="6.17" y2="17.22"/>
            <line class="cls-3" x1="5.06" y1="16.13" x2="7.25" y2="16.13"/>
            <line class="cls-3" x1="6.94" y1="15.35" x2="5.4" y2="16.9"/>
          </g>
          <g>
            <line class="cls-3" x1="13.58" y1="14.46" x2="15.12" y2="16.01"/>
            <line class="cls-3" x1="14.35" y1="14.14" x2="14.35" y2="16.33"/>
            <line class="cls-3" x1="13.24" y1="15.25" x2="15.43" y2="15.25"/>
            <line class="cls-3" x1="15.12" y1="14.46" x2="13.58" y2="16.01"/>
          </g>
          <g>
            <line class="cls-3" x1="9.8" y1="16.7" x2="11.35" y2="18.25"/>
            <line class="cls-3" x1="10.57" y1="16.38" x2="10.57" y2="18.57"/>
            <line class="cls-3" x1="9.47" y1="17.49" x2="11.66" y2="17.49"/>
            <line class="cls-3" x1="11.35" y1="16.7" x2="9.8" y2="18.25"/>
          </g>
        </g>
      </g>
    </g>
  </g>
</svg>