<?xml version="1.0" encoding="UTF-8"?>
<svg id="Layer_2" data-name="Layer 2" xmlns="http://www.w3.org/2000/svg" viewBox="0 0 20 20">
  <defs>
    <style>
      .cls-1 {
        fill: #cdcdc7;
      }

      .cls-1, .cls-2 {
        stroke-width: .5px;
      }

      .cls-1, .cls-2, .cls-3 {
        stroke: #231f20;
        stroke-linecap: round;
        stroke-miterlimit: 10;
      }

      .cls-2, .cls-3 {
        fill: none;
      }

      .cls-3 {
        stroke-width: .25px;
      }

      .cls-4 {
        fill: none;
        stroke-width: 0px;
      }
    </style>
  </defs>
  <g id="Layer_2-2" data-name="Layer 2">
    <g>
      <rect class="cls-4" width="20" height="20"/>
      <g>
        <path class="cls-1" d="M17.33,8.25c0,1.57-1.28,2.85-2.85,2.85-.91,0-1.72-.43-2.24-1.08-.51.65-1.33,1.08-2.23,1.08s-1.73-.43-2.24-1.09c-.52.66-1.34,1.09-2.25,1.09-1.57,0-2.85-1.28-2.85-2.85s1.19-2.76,2.68-2.85c-.11-.3-.17-.63-.17-.97,0-1.57,1.27-2.85,2.85-2.85.84,0,1.6.37,2.13.96.52-.59,1.28-.96,2.12-.96,1.58,0,2.85,1.28,2.85,2.85,0,.35-.07.69-.18,1.01,1.34.23,2.36,1.4,2.36,2.81Z"/>
        <g>
          <line class="cls-2" x1="5.32" y1="10.19" x2="5.32" y2="16.58"/>
          <line class="cls-2" x1="14.68" y1="10.19" x2="14.68" y2="16.58"/>
          <line class="cls-2" x1="7.66" y1="10.19" x2="7.66" y2="16.58"/>
          <line class="cls-2" x1="12.34" y1="10.19" x2="12.34" y2="16.58"/>
          <line class="cls-2" x1="10" y1="10.19" x2="10" y2="16.58"/>
        </g>
        <g>
          <line class="cls-3" x1="5.25" y1="17.51" x2="6.8" y2="19.06"/>
          <line class="cls-3" x1="6.03" y1="17.19" x2="6.03" y2="19.38"/>
          <line class="cls-3" x1="4.92" y1="18.3" x2="7.11" y2="18.3"/>
          <line class="cls-3" x1="6.8" y1="17.51" x2="5.25" y2="19.06"/>
        </g>
        <g>
          <line class="cls-3" x1="13.22" y1="17.51" x2="14.77" y2="19.06"/>
          <line class="cls-3" x1="14" y1="17.19" x2="14" y2="19.38"/>
          <line class="cls-3" x1="12.89" y1="18.3" x2="15.08" y2="18.3"/>
          <line class="cls-3" x1="14.77" y1="17.51" x2="13.22" y2="19.06"/>
        </g>
        <g>
          <line class="cls-3" x1="9.24" y1="17.53" x2="10.78" y2="19.08"/>
          <line class="cls-3" x1="10.01" y1="17.21" x2="10.01" y2="19.4"/>
          <line class="cls-3" x1="8.91" y1="18.32" x2="11.09" y2="18.32"/>
          <line class="cls-3" x1="10.78" y1="17.53" x2="9.24" y2="19.08"/>
        </g>
      </g>
    </g>
  </g>
</svg>