<?xml version="1.0" encoding="UTF-8"?>
<svg id="Layer_2" data-name="Layer 2" xmlns="http://www.w3.org/2000/svg" viewBox="0 0 20 20">
  <defs>
    <style>
      .cls-1 {
        fill: #cdcdc7;
      }

      .cls-1, .cls-2, .cls-3, .cls-4 {
        stroke-width: 0px;
      }

      .cls-2 {
        fill: #e3b464;
      }

      .cls-5 {
        fill: none;
        stroke: #231f20;
        stroke-miterlimit: 10;
        stroke-width: .5px;
      }

      .cls-3 {
        fill: #db8a4e;
      }

      .cls-4 {
        fill: none;
      }
    </style>
  </defs>
  <g id="Layer_2-2" data-name="Layer 2">
    <g>
      <rect class="cls-4" width="20" height="20"/>
      <g>
        <g>
          <path class="cls-3" d="M18.11,11.54c.23.2.14.58-.16.65l-3.42.85-.08-.06c.37-.51.64-1.1.8-1.75.16-.68.18-1.36.07-2.01h.13s2.66,2.32,2.66,2.32Z"/>
          <path class="cls-3" d="M16.91,5.65c.31-.02.51.31.36.57l-1.82,3.01h-.13c-.33-1.92-1.76-3.55-3.76-4.03-2.69-.64-5.39,1.01-6.03,3.7-.1.38-.14.76-.14,1.13-.24.05-.47.13-.67.26l-2.04-1.77c-.23-.2-.14-.58.16-.65l3.42-.85-.25-3.51c-.02-.3.31-.51.57-.35l3.02,1.82,2.3-2.66c.2-.23.58-.14.66.16l.84,3.42,3.51-.25Z"/>
          <path class="cls-2" d="M15.32,9.22c.11.65.09,1.33-.07,2.01-.16.65-.43,1.24-.8,1.75-.5.71-1.18,1.27-1.96,1.62-.1-.91-.8-1.64-1.69-1.8.08-.23.13-.47.13-.73,0-1.14-.92-2.07-2.07-2.07-.61,0-1.16.27-1.54.7-.39-.43-.94-.7-1.55-.7-.13,0-.26.01-.38.03,0-.37.04-.75.14-1.13.64-2.69,3.34-4.34,6.03-3.7,2,.48,3.43,2.11,3.76,4.02Z"/>
          <path class="cls-3" d="M14.78,16.55c.02.31-.31.51-.57.35l-1.91-1.15c.13-.27.21-.58.21-.91,0-.08,0-.16-.02-.24.78-.35,1.46-.91,1.96-1.62l.08.06.25,3.51Z"/>
          <path class="cls-1" d="M12.49,14.6c.02.08.02.16.02.24,0,.33-.08.64-.21.91-.34.69-1.04,1.16-1.86,1.16-.26,0-.5-.05-.72-.13-.36-.13-.67-.37-.9-.66-.21.27-.48.48-.8.62-.25.11-.53.17-.82.17-.66,0-1.25-.31-1.62-.79-.38.48-.97.79-1.63.79-1.15,0-2.07-.93-2.07-2.07s.86-2,1.94-2.07c-.08-.22-.12-.45-.12-.7,0-.76.41-1.42,1.02-1.78.2-.13.43-.21.67-.26.12-.02.25-.03.38-.03.61,0,1.16.27,1.55.7.38-.43.93-.7,1.54-.7,1.15,0,2.07.93,2.07,2.07,0,.26-.05.5-.13.73.89.16,1.59.89,1.69,1.8Z"/>
          <path class="cls-3" d="M9.72,16.78l-.83.96c-.2.24-.58.14-.66-.15l-.21-.85c.32-.14.59-.35.8-.62.23.29.54.53.9.66Z"/>
        </g>
        <g>
          <path class="cls-5" d="M8.02,16.74c-.25.11-.53.17-.82.17-.66,0-1.25-.31-1.62-.79-.38.48-.97.79-1.63.79-1.15,0-2.07-.93-2.07-2.07s.86-2,1.94-2.07c-.08-.22-.12-.45-.12-.7,0-.76.41-1.42,1.02-1.78"/>
          <path class="cls-5" d="M12.3,15.75c-.34.69-1.04,1.16-1.86,1.16-.26,0-.5-.05-.72-.13"/>
          <path class="cls-5" d="M9.72,16.78l-.83.96c-.2.24-.58.14-.66-.15l-.21-.85c.32-.14.59-.35.8-.62.23.29.54.53.9.66Z"/>
          <path class="cls-5" d="M5.39,10.03c-.24.05-.47.13-.67.26l-2.04-1.77c-.23-.2-.14-.58.16-.65l3.42-.85-.25-3.51c-.02-.3.31-.51.57-.35l3.02,1.82,2.3-2.66c.2-.23.58-.14.66.16l.84,3.42,3.51-.25c.31-.02.51.31.36.57l-1.82,3.01,2.66,2.31c.23.2.14.58-.16.65l-3.42.85.25,3.51c.02.31-.31.51-.57.35l-1.91-1.15c.13-.27.21-.58.21-.91,0-.08,0-.16-.02-.24"/>
          <path class="cls-5" d="M15.32,9.22c.11.65.09,1.33-.07,2.01-.16.65-.43,1.24-.8,1.75-.5.71-1.18,1.27-1.96,1.62-.1-.91-.8-1.64-1.69-1.8.08-.23.13-.47.13-.73,0-1.14-.92-2.07-2.07-2.07-.61,0-1.16.27-1.54.7-.39-.43-.94-.7-1.55-.7-.13,0-.26.01-.38.03,0-.37.04-.75.14-1.13.64-2.69,3.34-4.34,6.03-3.7,2,.48,3.43,2.11,3.76,4.02Z"/>
        </g>
      </g>
    </g>
  </g>
</svg>