<?xml version="1.0" encoding="UTF-8"?>
<svg id="Layer_2" data-name="Layer 2" xmlns="http://www.w3.org/2000/svg" viewBox="0 0 20 20">
  <defs>
    <style>
      .cls-1 {
        fill: #cdcdc7;
        stroke: #231f20;
      }

      .cls-1, .cls-2 {
        stroke-miterlimit: 10;
        stroke-width: .5px;
      }

      .cls-2 {
        fill: #e3b464;
        stroke: #000;
      }

      .cls-3 {
        fill: none;
        stroke-width: 0px;
      }
    </style>
  </defs>
  <g id="Layer_2-2" data-name="Layer 2">
    <g>
      <rect class="cls-3" width="20" height="20"/>
      <g>
        <path class="cls-2" d="M14.06,14.47c-3.42,0-6.18-2.77-6.18-6.18,0-2.42,1.39-4.51,3.41-5.52-.34-.05-.69-.08-1.04-.08-3.93,0-7.12,3.19-7.12,7.12s3.19,7.12,7.12,7.12c2.26,0,4.27-1.06,5.57-2.7-.56.17-1.15.26-1.76.26Z"/>
        <path class="cls-1" d="M12.94,13.73c0,1.18-.96,2.13-2.13,2.13-.68,0-1.28-.32-1.67-.81-.38.49-.99.81-1.66.81s-1.29-.32-1.67-.81c-.39.5-1,.81-1.68.81-1.18,0-2.13-.96-2.13-2.13s.89-2.06,2-2.13c-.09-.23-.13-.47-.13-.72,0-1.18.95-2.13,2.13-2.13.63,0,1.2.28,1.59.72.39-.44.96-.72,1.59-.72,1.18,0,2.13.96,2.13,2.13,0,.26-.05.52-.13.75,1,.17,1.76,1.05,1.76,2.1Z"/>
      </g>
    </g>
  </g>
</svg>