<?xml version="1.0" encoding="UTF-8"?>
<svg id="Layer_2" data-name="Layer 2" xmlns="http://www.w3.org/2000/svg" viewBox="0 0 20 20">
  <defs>
    <style>
      .cls-1 {
        fill: #cdcdc7;
        stroke-width: .5px;
      }

      .cls-1, .cls-2 {
        stroke: #231f20;
        stroke-miterlimit: 10;
      }

      .cls-2 {
        fill: none;
        stroke-linecap: round;
        stroke-width: .25px;
      }

      .cls-3 {
        fill: none;
        stroke-width: 0px;
      }
    </style>
  </defs>
  <g id="Layer_2-2" data-name="Layer 2">
    <g>
      <rect class="cls-3" width="20" height="20"/>
      <g>
        <path class="cls-1" d="M17.05,9.09c0,1.57-1.28,2.85-2.85,2.85-.91,0-1.72-.43-2.24-1.08-.51.65-1.33,1.08-2.23,1.08s-1.73-.43-2.24-1.09c-.52.66-1.34,1.09-2.25,1.09-1.57,0-2.85-1.28-2.85-2.85s1.19-2.76,2.68-2.85c-.11-.3-.17-.63-.17-.97,0-1.57,1.27-2.85,2.85-2.85.84,0,1.6.37,2.13.96.52-.59,1.28-.96,2.12-.96,1.58,0,2.85,1.28,2.85,2.85,0,.35-.07.69-.18,1.01,1.34.23,2.36,1.4,2.36,2.81Z"/>
        <g>
          <line class="cls-2" x1="7.06" y1="12.77" x2="8.61" y2="14.31"/>
          <line class="cls-2" x1="7.83" y1="12.45" x2="7.83" y2="14.64"/>
          <line class="cls-2" x1="6.73" y1="13.55" x2="8.92" y2="13.55"/>
          <line class="cls-2" x1="8.61" y1="12.77" x2="7.06" y2="14.31"/>
        </g>
        <g>
          <line class="cls-2" x1="11.96" y1="13.87" x2="13.5" y2="15.42"/>
          <line class="cls-2" x1="12.73" y1="13.55" x2="12.73" y2="15.74"/>
          <line class="cls-2" x1="11.62" y1="14.66" x2="13.81" y2="14.66"/>
          <line class="cls-2" x1="13.5" y1="13.87" x2="11.96" y2="15.42"/>
        </g>
        <g>
          <line class="cls-2" x1="8.96" y1="15.87" x2="10.5" y2="17.42"/>
          <line class="cls-2" x1="9.73" y1="15.55" x2="9.73" y2="17.74"/>
          <line class="cls-2" x1="8.63" y1="16.65" x2="10.81" y2="16.65"/>
          <line class="cls-2" x1="10.5" y1="15.87" x2="8.96" y2="17.42"/>
        </g>
        <g>
          <line class="cls-2" x1="5.03" y1="16.06" x2="6.58" y2="17.61"/>
          <line class="cls-2" x1="5.81" y1="15.74" x2="5.81" y2="17.93"/>
          <line class="cls-2" x1="4.7" y1="16.85" x2="6.89" y2="16.85"/>
          <line class="cls-2" x1="6.58" y1="16.06" x2="5.03" y2="17.61"/>
        </g>
        <g>
          <line class="cls-2" x1="14.15" y1="16.74" x2="15.69" y2="18.29"/>
          <line class="cls-2" x1="14.92" y1="16.42" x2="14.92" y2="18.61"/>
          <line class="cls-2" x1="13.81" y1="17.52" x2="16" y2="17.52"/>
          <line class="cls-2" x1="15.69" y1="16.74" x2="14.15" y2="18.29"/>
        </g>
      </g>
    </g>
  </g>
</svg>