<?xml version="1.0" encoding="UTF-8"?>
<svg id="Layer_2" data-name="Layer 2" xmlns="http://www.w3.org/2000/svg" xmlns:xlink="http://www.w3.org/1999/xlink" viewBox="0 0 20 20">
  <defs>
    <style>
      .cls-1 {
        clip-path: url(#clippath);
      }

      .cls-2, .cls-3 {
        fill: none;
      }

      .cls-2, .cls-4, .cls-5, .cls-6 {
        stroke-width: 0px;
      }

      .cls-3 {
        stroke: #000;
        stroke-linecap: round;
        stroke-linejoin: round;
        stroke-width: .5px;
      }

      .cls-4 {
        fill: #e3b464;
      }

      .cls-5 {
        fill: #db8a4e;
      }

      .cls-6 {
        fill: none;
      }
    </style>
    <clipPath id="clippath">
      <rect class="cls-2" x="1.78" y="9.78" width="16.43" height="8.06"/>
    </clipPath>
  </defs>
  <g id="Layer_2-2" data-name="Layer 2">
    <g>
      <rect class="cls-6" width="20" height="20"/>
      <g>
        <g>
          <g class="cls-1">
            <g>
              <g>
                <path class="cls-5" d="M17.19,14.47c.3.03.45.39.25.62l-2.29,2.68h-.12c0-1.33-.52-2.59-1.45-3.53l.11-.1,3.5.33Z"/>
                <path class="cls-4" d="M15.03,17.75c0,.65-.13,1.32-.4,1.95-1.08,2.54-4.02,3.73-6.56,2.65-1.92-.82-3.07-2.69-3.05-4.66,0-.64.13-1.28.4-1.9.27-.63.65-1.18,1.12-1.63.93-.92,2.22-1.43,3.53-1.42.64,0,1.28.13,1.9.4s1.16.64,1.6,1.09c.93.94,1.45,2.2,1.45,3.52Z"/>
                <path class="cls-5" d="M13.41,10.62l.27,3.51-.11.1c-.44-.45-.98-.82-1.6-1.09s-1.26-.39-1.9-.4v-.15s2.72-2.23,2.72-2.23c.24-.2.6-.05.62.26Z"/>
                <path class="cls-5" d="M10.08,12.6v.15c-1.32-.02-2.6.5-3.54,1.42l-.1-.1.33-3.5c.03-.31.39-.45.63-.25l2.67,2.28Z"/>
                <path class="cls-5" d="M6.45,14.07l.1.1c-.47.45-.86.99-1.12,1.63-.27.62-.39,1.26-.4,1.9l-.1-.03-2.24-2.71c-.19-.24-.04-.6.26-.63l3.51-.26Z"/>
              </g>
              <path class="cls-3" d="M5.02,17.69l-.1-.03-2.24-2.71c-.19-.24-.04-.6.26-.63l3.51-.26.33-3.5c.03-.31.39-.45.63-.25l2.67,2.28,2.72-2.23c.24-.2.6-.05.62.26l.27,3.51,3.5.33c.3.03.45.39.25.62l-2.29,2.68h-.12c0,.64-.13,1.31-.4,1.94-1.08,2.54-4.02,3.73-6.56,2.65-1.92-.82-3.07-2.69-3.05-4.66,0-.64.13-1.28.4-1.9.27-.63.65-1.18,1.12-1.63.93-.92,2.22-1.43,3.53-1.42.64,0,1.28.13,1.9.4s1.16.64,1.6,1.09c.93.94,1.45,2.2,1.45,3.52"/>
            </g>
          </g>
          <line class="cls-3" x1="1.78" y1="17.84" x2="18.22" y2="17.84"/>
        </g>
        <g>
          <line class="cls-3" x1="10.22" y1="6.04" x2="10.22" y2="11.63"/>
          <line class="cls-3" x1="12.17" y1="9.6" x2="10.22" y2="11.63"/>
          <line class="cls-3" x1="8.19" y1="9.64" x2="10.22" y2="11.63"/>
        </g>
      </g>
    </g>
  </g>
</svg>