<?xml version="1.0" encoding="UTF-8"?>
<svg id="Layer_2" data-name="Layer 2" xmlns="http://www.w3.org/2000/svg" viewBox="0 0 20 20">
  <defs>
    <style>
      .cls-1 {
        fill: none;
        stroke: #231f20;
        stroke-linecap: round;
        stroke-miterlimit: 10;
        stroke-width: .5px;
      }

      .cls-2 {
        fill: #cdcdc7;
      }

      .cls-2, .cls-3, .cls-4 {
        stroke-width: 0px;
      }

      .cls-3 {
        fill: none;
      }

      .cls-4 {
        fill: #f4d84e;
      }
    </style>
  </defs>
  <g id="Layer_2-2" data-name="Layer 2">
    <g>
      <rect class="cls-3" width="20" height="20"/>
      <g>
        <g>
          <path class="cls-2" d="M5.32,11.42c-1.48-.1-2.65-1.34-2.65-2.84s1.18-2.76,2.68-2.85c-.11-.3-.17-.62-.17-.97,0-1.57,1.27-2.85,2.86-2.85.84,0,1.6.37,2.13.96.52-.59,1.28-.96,2.13-.96,1.58,0,2.85,1.28,2.85,2.85,0,.36-.07.7-.18,1.01,1.34.23,2.36,1.4,2.36,2.81,0,1.5-1.17,2.74-2.65,2.84-.07.01-.13.01-.2.01-.55,0-1.06-.16-1.49-.42l.73-1.42h-3.78l-.47,1.78c-.69-.12-1.29-.5-1.7-1.03-.52.66-1.34,1.09-2.25,1.09-.07,0-.13,0-.2-.01Z"/>
          <polygon class="cls-4" points="12.1 12.72 13.72 12.72 9.43 17.55 10.12 13.57 8.9 13.57 9.47 11.37 9.94 9.59 13.72 9.59 12.99 11.01 12.1 12.72"/>
        </g>
        <g>
          <line class="cls-1" x1="5.32" y1="11.42" x2="5.32" y2="13.09"/>
          <line class="cls-1" x1="14.68" y1="11.42" x2="14.68" y2="13.09"/>
          <line class="cls-1" x1="7.66" y1="10.51" x2="7.66" y2="15.18"/>
          <path class="cls-1" d="M9.47,11.37c-.69-.12-1.29-.5-1.7-1.03-.52.66-1.34,1.09-2.25,1.09-.07,0-.13,0-.2-.01-1.48-.1-2.65-1.34-2.65-2.84s1.18-2.76,2.68-2.85c-.11-.3-.17-.62-.17-.97,0-1.57,1.27-2.85,2.86-2.85.84,0,1.6.37,2.13.96.52-.59,1.28-.96,2.13-.96,1.58,0,2.85,1.28,2.85,2.85,0,.36-.07.7-.18,1.01,1.34.23,2.36,1.4,2.36,2.81,0,1.5-1.17,2.74-2.65,2.84-.07.01-.13.01-.2.01-.55,0-1.06-.16-1.49-.42"/>
          <polygon class="cls-1" points="12.99 11.01 12.1 12.72 13.72 12.72 9.43 17.55 10.12 13.57 8.9 13.57 9.47 11.37 9.94 9.59 13.72 9.59 12.99 11.01"/>
        </g>
      </g>
    </g>
  </g>
</svg>